# This file uses centimeters as units for non-parametric coordinates.

mtllib corner .mtl
g default
v 2.684269 2.418719 1.950559
v 6.585389 2.418719 1.950559
v 2.684269 2.635686 1.950559
v 6.585389 2.635686 1.950559
v 2.684269 2.635686 -1.950559
v 6.585389 2.635686 -1.950559
v 2.684269 2.418719 -1.950559
v 6.585389 2.418719 -1.950559
v 2.684269 2.635686 -1.560448
v 6.585389 2.635686 -1.560448
v 6.585389 2.418719 -1.560448
v 2.684269 2.418719 -1.560448
v 6.195277 2.418719 1.950559
v 6.195277 2.418719 -1.950559
v 6.195277 2.635686 -1.950559
v 6.195277 2.635686 -1.560448
v 6.195277 2.635686 1.950559
v 2.684269 2.635686 1.599459
v 6.195277 2.635686 1.599459
v 6.585389 2.635686 1.599459
v 6.585389 2.418719 1.599459
v 2.684269 2.418719 1.599459
v 3.035370 2.418719 1.950559
v 3.035370 2.418719 -1.950559
v 3.035370 2.635686 -1.950559
v 3.035370 2.635686 -1.560447
v 3.035370 2.635686 1.599459
v 3.035370 2.635686 1.950559
v 6.195277 2.866317 -1.950559
v 6.195277 2.866317 -1.560448
v 6.585389 2.866317 -1.560448
v 6.585389 2.866317 -1.950559
v 6.195277 2.866317 1.599459
v 6.585389 2.866317 1.599459
v 3.035370 2.866317 -1.950559
v 3.035370 2.866317 -1.560447
v 6.195277 2.866317 1.950559
v 6.585389 2.866317 1.950559
v 2.684269 2.866317 -1.560448
v 2.684269 2.866317 -1.950559
v 2.684269 2.866317 1.950559
v 3.035370 2.866317 1.950559
v 3.035370 2.866317 1.599459
v 2.684269 2.866317 1.599459
vt 0.710278 0.241623
vt 0.710278 0.001992
vt 0.734241 0.001992
vt 0.734241 0.241623
vt 0.516177 0.241623
vt 0.516177 0.001992
vt 0.734241 0.496345
vt 0.710278 0.496345
vt 0.494610 0.001992
vt 0.494610 0.241623
vt 0.516177 0.496345
vt 0.494610 0.496345
vt 0.674324 0.500000
vt 0.698287 0.500000
vt 0.698287 0.739631
vt 0.674324 0.739631
vt 0.892388 0.500000
vt 0.892388 0.739631
vt 0.698287 0.994353
vt 0.674324 0.994353
vt 0.913955 0.500000
vt 0.913955 0.739631
vt 0.913955 0.994353
vt 0.892388 0.994353
vt 0.453038 0.500000
vt 0.647139 0.500000
vt 0.647139 0.754722
vt 0.453038 0.754722
vt 0.668706 0.500000
vt 0.668706 0.754722
vt 0.204567 0.500000
vt 0.226133 0.500000
vt 0.226133 0.754722
vt 0.204567 0.754722
vt 0.217492 0.998008
vt 0.217492 0.974045
vt 0.241455 0.974045
vt 0.241455 0.998008
vt 0.023391 0.998008
vt 0.023391 0.974045
vt 0.217492 0.779944
vt 0.241455 0.779944
vt 0.001824 0.974045
vt 0.001824 0.998008
vt 0.217492 0.758377
vt 0.241455 0.758377
vt 0.269873 0.974045
vt 0.269873 0.779944
vt 0.463974 0.779944
vt 0.463974 0.974045
vt 0.248306 0.779944
vt 0.248306 0.974045
vt 0.269873 0.758377
vt 0.463974 0.758377
vt 0.469623 0.758377
vt 0.491190 0.758377
vt 0.491190 0.779944
vt 0.469623 0.779944
vt 0.217492 0.241623
vt 0.217492 0.001992
vt 0.241455 0.001992
vt 0.241455 0.241623
vt 0.023391 0.241623
vt 0.023391 0.001992
vt 0.241455 0.496345
vt 0.217492 0.496345
vt 0.001824 0.001992
vt 0.001824 0.241623
vt 0.023391 0.496345
vt 0.001824 0.496345
vt 0.463974 0.496345
vt 0.463974 0.256714
vt 0.487937 0.256714
vt 0.487937 0.496345
vt 0.269873 0.496345
vt 0.269873 0.256714
vt 0.463974 0.001992
vt 0.487937 0.001992
vt 0.248306 0.256714
vt 0.248306 0.496345
vt 0.269873 0.001992
vt 0.248306 0.001992
vt 0.253319 0.500000
vt 0.447419 0.500000
vt 0.447419 0.754722
vt 0.253319 0.754722
vt 0.231752 0.500000
vt 0.231752 0.754722
vt 0.198948 0.754722
vt 0.177381 0.754722
vt 0.177381 0.500000
vt 0.198948 0.500000
vn 0.000000 0.000000 1.000000
vn 0.000000 0.000000 1.000000
vn 0.000000 0.000000 1.000000
vn 0.000000 0.000000 1.000000
vn 0.000000 1.000000 0.000000
vn 0.000000 1.000000 0.000000
vn 0.000000 1.000000 0.000000
vn 0.000000 1.000000 0.000000
vn 0.000000 0.000000 -1.000000
vn 0.000000 0.000000 -1.000000
vn 0.000000 0.000000 -1.000000
vn 0.000000 0.000000 -1.000000
vn 1.000000 0.000000 0.000000
vn 1.000000 0.000000 0.000000
vn 1.000000 0.000000 0.000000
vn 1.000000 0.000000 0.000000
vn -1.000000 0.000000 0.000000
vn -1.000000 0.000000 0.000000
vn -1.000000 0.000000 0.000000
vn -1.000000 0.000000 0.000000
vn 0.000000 1.000000 0.000000
vn 0.000000 1.000000 0.000000
vn 1.000000 0.000000 0.000000
vn 1.000000 0.000000 0.000000
vn -1.000000 0.000000 0.000000
vn -1.000000 0.000000 0.000000
vn 0.000000 0.000000 -1.000000
vn 0.000000 0.000000 -1.000000
vn 0.000000 1.000000 0.000000
vn 0.000000 1.000000 0.000000
vn 0.000000 1.000000 0.000000
vn 0.000000 1.000000 0.000000
vn 0.000000 1.000000 0.000000
vn 0.000000 1.000000 0.000000
vn 0.000000 0.000000 1.000000
vn 0.000000 0.000000 1.000000
vn 0.000000 1.000000 0.000000
vn 0.000000 1.000000 0.000000
vn 0.000000 1.000000 0.000000
vn 0.000000 1.000000 0.000000
vn 1.000000 0.000000 0.000000
vn 1.000000 0.000000 0.000000
vn -1.000000 0.000000 0.000000
vn -1.000000 0.000000 0.000000
vn 0.000000 0.000000 -1.000000
vn 0.000000 0.000000 -1.000000
vn 0.000000 1.000000 0.000000
vn 0.000000 1.000000 0.000000
vn 0.000000 1.000000 0.000000
vn 0.000000 1.000000 0.000000
vn 0.000000 1.000000 0.000000
vn 0.000000 1.000000 0.000000
vn 0.000000 1.000000 0.000000
vn 0.000000 1.000000 0.000000
vn 0.000000 0.000000 1.000000
vn 0.000000 0.000000 1.000000
vn 1.000000 0.000000 0.000000
vn 1.000000 0.000000 0.000000
vn 0.000000 0.000000 -1.000000
vn 0.000000 0.000000 -1.000000
vn -1.000000 0.000000 0.000000
vn -1.000000 0.000000 0.000000
vn -1.000000 0.000000 0.000000
vn -1.000000 0.000000 0.000000
vn 1.000000 0.000000 0.000000
vn 0.000000 0.000000 1.000000
vn 0.000000 0.000000 1.000000
vn 0.000000 0.000000 1.000000
vn 0.000000 0.000000 1.000000
vn 0.000000 0.000000 -1.000000
vn -1.000000 0.000000 0.000000
vn -1.000000 0.000000 0.000000
vn 0.000000 0.000000 1.000000
vn 0.000000 0.000000 1.000000
vn 1.000000 0.000000 0.000000
vn -0.000001 0.000000 1.000000
vn -0.000001 0.000000 1.000000
vn 0.000000 0.000000 -1.000000
vn -1.000000 0.000000 0.000000
vn -1.000000 0.000000 0.000000
vn 0.000000 0.000000 1.000000
vn 0.000000 0.000000 1.000000
vn 1.000000 0.000000 0.000000
vn 1.000000 0.000000 0.000000
vn 1.000000 0.000000 0.000000
vn 1.000000 0.000000 0.000000
vn 0.000000 0.000000 -1.000000
vn 0.000000 0.000000 -1.000000
vn 0.000000 0.000000 -1.000000
vn 0.000000 0.000000 -1.000000
vn -1.000000 0.000000 0.000000
vn -1.000000 0.000000 0.000000
s 1
g pasted__pCube1 group2
usemtl initialShadingGroup
f 17/59/1 13/60/2 2/61/3 4/62/4
s 2
f 29/35/5 30/36/6 31/37/7 32/38/8
s 3
f 14/71/9 15/72/10 6/73/11 8/74/12
s 4
f 10/1/13 11/2/14 8/3/15 6/4/16
s 5
f 7/13/17 12/14/18 9/15/19 5/16/20
s 2
f 30/36/6 33/41/21 34/42/22 31/37/7
s 4
f 20/5/23 21/6/24 11/2/14 10/1/13
s 5
f 9/15/19 12/14/18 22/17/25 18/18/26
s 3
f 24/75/27 25/76/28 15/72/10 14/71/9
s 2
f 35/39/29 36/40/30 30/36/6 29/35/5
s 6
f 26/47/31 27/48/32 19/49/33 16/50/34
s 1
f 28/63/35 23/64/36 13/60/2 17/59/1
s 6
f 27/48/32 28/53/37 17/54/38 19/49/33
s 2
f 34/42/22 33/41/21 37/45/39 38/46/40
s 4
f 2/9/41 21/6/24 20/5/23 4/10/42
s 5
f 18/18/26 22/17/25 1/21/43 3/22/44
s 3
f 5/79/45 25/76/28 24/75/27 7/80/46
s 2
f 39/43/47 36/40/30 35/39/29 40/44/48
s 6
f 18/51/49 27/48/32 26/47/31 9/52/50
s off
f 41/55/51 42/56/52 43/57/53 44/58/54
s 1
f 1/67/55 23/64/36 28/63/35 3/68/56
s 4
f 10/1/13 6/4/16 32/7/57 31/8/58
s 3
f 6/73/11 15/72/10 29/77/59 32/78/60
s 7
f 16/25/61 19/26/62 33/27/63 30/28/64
s 4
f 20/5/23 10/1/13 31/8/58 34/11/65
s 8
f 26/83/66 16/84/67 30/85/68 36/86/69
s 3
f 15/72/10 25/76/28 35/81/70 29/77/59
s 7
f 19/26/62 17/29/71 37/30/72 33/27/63
s 1
f 17/59/1 4/62/4 38/65/73 37/66/74
s 4
f 4/10/42 20/5/23 34/11/65 38/12/75
s 8
f 9/87/76 26/83/66 36/86/69 39/88/77
s 3
f 25/76/28 5/79/45 40/82/78 35/81/70
s 5
f 5/16/20 9/15/19 39/19/79 40/20/80
s 1
f 3/68/56 28/63/35 42/69/81 41/70/82
s off
f 28/31/83 27/32/84 43/33/85 42/34/86
f 27/89/87 18/90/88 44/91/89 43/92/90
s 5
f 18/18/26 3/22/44 41/23/91 44/24/92
