# This file uses centimeters as units for non-parametric coordinates.

mtllib cross section.mtl
g default
v -6.498253 2.418719 1.926667
v -2.597133 2.418719 1.926667
v -6.498253 2.635686 1.926667
v -2.597133 2.635686 1.926667
v -6.498253 2.635686 -1.974452
v -2.597133 2.635686 -1.974452
v -6.498253 2.418719 -1.974452
v -2.597133 2.418719 -1.974452
v -6.498253 2.635686 1.536555
v -2.597133 2.635686 1.536555
v -2.597133 2.418719 1.536555
v -6.498253 2.418719 1.536555
v -2.987246 2.418719 1.926667
v -2.987246 2.418719 -1.974452
v -2.987246 2.635686 -1.974452
v -2.987246 2.635686 1.536555
v -2.987246 2.635686 1.926667
v -6.498253 2.418719 -1.623352
v -2.597133 2.418719 -1.623352
v -2.597133 2.635686 -1.623352
v -2.987246 2.635686 -1.623352
v -6.498253 2.635686 -1.623352
v -6.147152 2.418719 1.926667
v -6.147152 2.418719 -1.974452
v -6.147152 2.635686 -1.974452
v -6.147152 2.635686 -1.623352
v -6.147152 2.635686 1.536555
v -6.147152 2.635686 1.926667
v -2.987246 2.866317 1.536555
v -2.987246 2.866317 1.926667
v -2.597133 2.866317 1.926667
v -2.597133 2.866317 1.536555
v -2.987246 2.866317 -1.974453
v -2.987246 2.866317 -1.623352
v -2.597133 2.866317 -1.623352
v -2.597133 2.866317 -1.974453
v -6.147152 2.866317 -1.623352
v -6.498253 2.866317 -1.623352
v -6.147152 2.866317 -1.974452
v -6.498253 2.866317 -1.974452
v -6.498253 2.866317 1.926667
v -6.147152 2.866317 1.926667
v -6.147152 2.866317 1.536555
v -6.498253 2.866317 1.536555
vt 0.247846 0.465042
vt 0.999918 0.058678
vt 0.759080 0.299595
vt 0.510756 0.347744
vt 0.000036 0.712923
vt 0.305399 0.327742
vt 0.017648 0.039901
vt 0.017603 0.327697
vt 0.756755 0.593717
vt 0.223097 0.712891
vt 0.000000 0.000000
vt 0.510757 0.372343
vt 0.756743 0.372330
vt 0.223061 0.465045
vt 0.975830 0.058682
vt 0.017608 0.298917
vt 0.000000 0.000000
vt 0.000000 0.000000
vt 0.975870 0.299559
vt 0.022306 0.465074
vt 0.756753 0.571578
vt 0.510768 0.571591
vt 0.735305 0.162420
vt 0.713375 0.210270
vt 0.780719 0.058714
vt 0.017644 0.065803
vt 0.305440 0.065847
vt 0.000000 0.000000
vt 0.000000 0.000000
vt 0.000000 0.000000
vt 0.320012 0.159257
vt 0.975912 0.555607
vt 0.249279 0.347758
vt 0.000000 0.000000
vt 0.387080 0.149083
vt 0.605439 0.162402
vt 0.249291 0.571605
vt 0.611320 0.327790
vt 0.516359 0.133546
vt 0.000000 0.000000
vt 0.611361 0.065895
vt 0.000074 0.976378
vt 0.450721 0.129431
vt 0.000000 0.000000
vt 0.000000 0.000000
vt 0.223135 0.976346
vt 0.780759 0.299592
vt 0.759122 0.555643
vt 0.247920 0.976342
vt 0.000000 0.000000
vt 0.450721 0.155839
vt 0.000000 0.000000
vt 0.474489 0.155839
vt 0.405362 0.687657
vt 0.000000 0.000000
vt 0.780801 0.555639
vt 0.474489 0.129431
vt 0.432849 0.687656
vt 0.000000 0.000000
vt 0.432847 0.657114
vt 0.000000 0.000000
vt 0.000000 0.000000
vt 0.249280 0.372357
vt 0.346421 0.159257
vt 1.000000 0.555603
vt 0.346421 0.132849
vt 0.710777 0.687641
vt 0.000000 0.000000
vt 0.320012 0.132849
vt 0.680234 0.657101
vt 0.000000 0.000000
vt 0.680236 0.687643
vt 0.000000 0.000000
vt 0.756741 0.347731
vt 0.999958 0.299555
vt 0.759040 0.058717
vt 0.247882 0.712887
vt 0.583509 0.210276
vt 0.022380 0.976375
vt 0.611365 0.039994
vt 0.516358 0.157314
vt 0.000000 0.000000
vt 0.540126 0.157314
vt 0.305444 0.039946
vt 0.583510 0.221272
vt 0.540126 0.133546
vt 0.432864 0.962530
vt 0.000000 0.000000
vt 0.405375 0.935044
vt 0.022342 0.712920
vt 0.432862 0.935043
vt 0.713376 0.221266
vt 0.000000 0.465078
vt 0.000000 0.000000
vt 0.611325 0.299010
vt 0.249292 0.593744
vt 0.413488 0.149083
vt 0.605437 0.174619
vt 0.413488 0.125315
vt 0.510769 0.593730
vt 0.000000 0.000000
vt 0.387080 0.125315
vt 0.710790 0.935028
vt 0.305404 0.298962
vt 0.735303 0.174638
vt 0.680249 0.935030
vt 0.000000 0.000000
vt 0.680250 0.962517
vn 0.000000 0.000000 1.000000
vn 0.000000 0.000000 1.000000
vn 0.000000 0.000000 1.000000
vn 0.000000 0.000000 1.000000
vn 0.000000 1.000000 0.000000
vn 0.000000 1.000000 0.000000
vn 0.000000 1.000000 0.000000
vn 0.000000 1.000000 0.000000
vn 0.000000 0.000000 -1.000000
vn 0.000000 -0.000000 -1.000000
vn 0.000000 -0.000001 -1.000000
vn 0.000000 0.000000 -1.000000
vn 1.000000 0.000000 0.000000
vn 1.000000 0.000000 0.000000
vn 1.000000 0.000000 0.000000
vn 1.000000 0.000000 0.000000
vn -1.000000 0.000000 0.000000
vn -1.000000 0.000000 0.000000
vn -1.000000 0.000000 0.000000
vn -1.000000 0.000000 0.000000
vn 0.000000 1.000000 0.000000
vn 0.000000 1.000000 0.000000
vn 0.000000 1.000000 0.000000
vn 0.000000 1.000000 0.000000
vn 1.000000 0.000000 0.000000
vn 1.000000 0.000000 0.000000
vn -1.000000 0.000000 0.000000
vn -1.000000 0.000000 0.000000
vn 0.000000 0.000000 -1.000000
vn 0.000000 0.000000 -1.000000
vn 0.000000 1.000000 0.000000
vn 0.000000 1.000000 0.000000
vn 0.000000 1.000000 0.000000
vn 0.000000 1.000000 0.000000
vn 0.000000 0.000000 1.000000
vn 0.000000 0.000000 1.000000
vn 1.000000 0.000000 0.000000
vn 1.000000 0.000000 0.000000
vn 0.000000 1.000000 0.000000
vn 0.000000 1.000000 0.000000
vn 0.000000 1.000000 0.000000
vn 0.000000 1.000000 0.000000
vn 0.000000 1.000000 0.000000
vn 0.000000 1.000000 0.000000
vn -1.000000 0.000000 0.000000
vn -1.000000 0.000000 0.000000
vn 0.000000 0.000000 -1.000000
vn 0.000000 0.000000 -1.000000
vn 0.000000 1.000000 0.000000
vn 0.000000 1.000000 0.000000
vn 0.000000 1.000000 0.000000
vn 0.000000 1.000000 0.000000
vn 0.000000 1.000000 0.000000
vn 0.000000 1.000000 0.000000
vn 0.000000 1.000000 0.000000
vn 0.000000 1.000000 0.000000
vn 0.000000 1.000000 0.000000
vn 0.000000 1.000000 0.000000
vn 0.000000 0.000000 1.000000
vn 0.000000 0.000000 1.000000
vn -1.000000 0.000000 0.000000
vn -1.000000 0.000000 0.000000
vn -1.000000 0.000000 0.000000
vn -1.000000 0.000000 0.000000
vn 0.000000 0.000000 1.000000
vn 0.000000 0.000000 1.000000
vn 1.000000 0.000000 0.000000
vn 1.000000 0.000000 0.000000
vn 0.000000 0.000000 -1.000000
vn 0.000000 0.000000 -1.000000
vn 0.000000 0.000000 -1.000000
vn 0.000000 0.000000 -1.000000
vn -1.000000 -0.000000 -0.000001
vn -1.000000 -0.000000 -0.000001
vn -1.000000 -0.000000 -0.000001
vn -1.000000 -0.000000 -0.000001
vn 0.000000 0.000001 1.000000
vn 0.000000 0.000001 1.000000
vn 0.000000 0.000001 1.000000
vn 0.000000 0.000001 1.000000
vn 1.000000 0.000000 0.000000
vn 1.000000 0.000000 0.000000
vn 0.000000 -0.000001 -1.000000
vn 0.000000 -0.000001 -1.000000
vn 0.000000 0.000000 1.000000
vn 0.000000 0.000000 1.000000
vn 0.000000 0.000000 1.000000
vn 0.000000 0.000000 1.000000
vn 1.000000 0.000000 0.000000
vn 1.000000 0.000000 0.000000
vn 1.000000 0.000000 0.000000
vn 1.000000 0.000000 0.000000
vn 0.000000 0.000000 -1.000000
vn 0.000000 0.000000 -1.000000
vn -1.000000 0.000000 0.000000
vn -1.000000 0.000000 0.000000
vn 0.000000 0.000000 1.000000
vn 0.000000 0.000000 1.000000
vn 1.000000 0.000000 0.000000
vn 1.000000 0.000000 0.000000
vn 1.000000 0.000000 0.000000
vn 1.000000 0.000000 0.000000
vn 0.000000 0.000000 -1.000000
vn 0.000000 0.000000 -1.000000
vn 0.000000 0.000000 -1.000000
vn 0.000000 0.000000 -1.000000
vn -1.000000 0.000000 0.000000
vn -1.000000 0.000000 0.000000
s 1
g pasted__pCube1 group
usemtl initialShadingGroup
f 17/19/1 13/15/2 2/2/3 4/75/4
s 2
f 20/103/5 21/106/6 16/72/7 10/67/8
s 3
f 14/16/9 15/104/10 6/6/11 8/8/12
s 4
f 10/12/13 11/13/14 19/21/15 20/22/16
s 5
f 22/90/17 18/20/18 12/14/19 9/10/20
s off
f 29/31/21 30/69/22 31/66/23 32/64/24
s 4
f 2/74/25 11/13/14 10/12/13 4/4/26
s 5
f 9/10/20 12/14/19 1/1/27 3/77/28
s 3
f 24/26/29 25/27/30 15/104/10 14/16/9
s 2
f 26/91/31 27/58/32 16/72/7 21/106/6
f 27/58/32 28/60/33 17/70/34 16/72/7
s 1
f 28/47/35 23/25/36 13/15/2 17/19/1
s 4
f 20/22/16 19/21/15 8/9/37 6/100/38
s off
f 33/35/39 34/102/40 35/99/41 36/97/42
s 2
f 25/87/43 26/91/31 21/106/6 15/108/44
s 5
f 7/93/45 18/20/18 22/90/17 5/5/46
s 3
f 5/84/47 25/27/30 24/26/29 7/7/48
s off
f 38/39/49 37/86/50 39/83/51 40/81/52
s 2
f 9/54/53 27/58/32 26/91/31 22/89/54
s off
f 41/43/55 42/57/56 43/53/57 44/51/58
s 1
f 1/76/59 23/25/36 28/47/35 3/3/60
s off
f 16/18/61 17/71/62 30/68/63 29/61/64
s 1
f 17/19/1 4/75/4 31/65/65 30/32/66
s 4
f 4/4/26 10/12/13 32/63/67 31/33/68
s off
f 10/11/69 16/73/70 29/62/71 32/34/72
f 15/17/73 21/107/74 34/101/75 33/94/76
f 21/23/77 20/105/78 35/98/79 34/36/80
s 4
f 20/22/16 6/100/38 36/96/81 35/37/82
s 3
f 6/6/11 15/104/10 33/95/83 36/38/84
s off
f 22/24/85 26/92/86 37/85/87 38/78/88
f 26/28/89 25/88/90 39/82/91 37/40/92
s 3
f 25/27/30 5/84/47 40/80/93 39/41/94
s 5
f 5/5/46 22/90/17 38/79/95 40/42/96
s 1
f 3/3/60 28/47/35 42/56/97 41/48/98
s off
f 28/30/99 27/59/100 43/52/101 42/44/102
f 27/29/103 9/55/104 44/50/105 43/45/106
s 5
f 9/10/20 3/77/28 41/49/107 44/46/108
