# This file uses centimeters as units for non-parametric coordinates.

mtllib t section.mtl
g default
v -1.950559 2.418719 1.950559
v 1.950559 2.418719 1.950559
v -1.950559 2.635685 1.950559
v 1.950559 2.635685 1.950559
v -1.950559 2.635685 -1.950559
v 1.950559 2.635685 -1.950559
v -1.950559 2.418719 -1.950559
v 1.950559 2.418719 -1.950559
v -1.950559 2.635685 -1.560448
v 1.950559 2.635685 -1.560448
v 1.950559 2.418719 -1.560448
v -1.950559 2.418719 -1.560448
v 1.560448 2.418719 1.950559
v 1.560448 2.418719 -1.950559
v 1.560448 2.635685 -1.950559
v 1.560448 2.635685 -1.560448
v 1.560448 2.635685 1.950559
v -1.950559 2.635685 1.599460
v 1.560448 2.635685 1.599459
v 1.950559 2.635685 1.599460
v 1.950559 2.418719 1.599459
v -1.950559 2.418719 1.599459
v -1.599460 2.418719 1.950559
v -1.599460 2.418719 -1.950559
v -1.599460 2.635685 -1.950559
v -1.599460 2.635685 -1.560447
v -1.599460 2.635685 1.599460
v -1.599460 2.635685 1.950559
v 1.560448 2.866316 -1.950559
v 1.560448 2.866316 -1.560448
v 1.950559 2.866316 -1.560448
v 1.950559 2.866316 -1.950559
v -1.599460 2.866316 -1.950559
v -1.599460 2.866316 -1.560447
v -1.950559 2.866316 -1.560448
v -1.950559 2.866316 -1.950559
v 1.560448 2.866316 1.599459
v 1.950559 2.866316 1.599460
v 1.560448 2.866316 1.950559
v 1.950559 2.866316 1.950559
v -1.950559 2.866316 1.950559
v -1.599460 2.866316 1.950559
v -1.599460 2.866316 1.599460
v -1.950559 2.866316 1.599460
vt 0.975156 0.248441
vt 0.975156 0.000000
vt 1.000000 0.000000
vt 1.000000 0.248441
vt 0.773917 0.248441
vt 0.773917 0.000000
vt 1.000000 0.512530
vt 0.975156 0.512530
vt 0.751558 0.000000
vt 0.751558 0.248441
vt 0.773917 0.512530
vt 0.751558 0.512530
vt 0.000000 0.000000
vt 0.024844 0.000000
vt 0.024844 0.248441
vt 0.000000 0.248441
vt 0.226083 0.000000
vt 0.226083 0.248441
vt 0.024844 0.512530
vt 0.000000 0.512530
vt 0.248442 0.000000
vt 0.248442 0.248441
vt 0.248442 0.512530
vt 0.226083 0.512530
vt 0.108249 0.248441
vt 0.130609 0.248441
vt 0.130609 0.512530
vt 0.108249 0.512530
vt 0.083506 0.248441
vt 0.105866 0.248441
vt 0.105866 0.512530
vt 0.083506 0.512530
vt 0.080515 0.273286
vt 0.055671 0.273286
vt 0.055671 0.248441
vt 0.080515 0.248441
vt 0.080515 0.474524
vt 0.055671 0.474524
vt 0.055671 0.496884
vt 0.080515 0.496884
vt 0.611592 0.632549
vt 0.410354 0.632549
vt 0.410354 0.607705
vt 0.611592 0.607705
vt 0.611592 0.833788
vt 0.410354 0.833788
vt 0.410354 0.856147
vt 0.611592 0.856147
vt 0.387994 0.833788
vt 0.387994 0.632549
vt 0.180094 0.248441
vt 0.180094 0.273286
vt 0.157734 0.273286
vt 0.157734 0.248441
vt 0.182477 0.270801
vt 0.182477 0.248441
vt 0.204837 0.248441
vt 0.204837 0.270801
vt 0.474117 0.248441
vt 0.474117 0.000000
vt 0.498962 0.000000
vt 0.498962 0.248441
vt 0.272879 0.248441
vt 0.272879 0.000000
vt 0.498962 0.512530
vt 0.474117 0.512530
vt 0.250519 0.000000
vt 0.250519 0.248441
vt 0.272879 0.512530
vt 0.250519 0.512530
vt 0.724637 0.512530
vt 0.724637 0.264089
vt 0.749481 0.264089
vt 0.749481 0.512530
vt 0.523398 0.512530
vt 0.523398 0.264089
vt 0.724637 0.000000
vt 0.749481 0.000000
vt 0.501038 0.264089
vt 0.501038 0.512530
vt 0.523398 0.000000
vt 0.501038 0.000000
vt 0.223598 0.512530
vt 0.248442 0.512530
vt 0.248442 0.776618
vt 0.223598 0.776618
vt 0.022360 0.512530
vt 0.022360 0.776618
vt 0.000000 0.512530
vt 0.000000 0.776618
vt 0.052680 0.512530
vt 0.027835 0.512530
vt 0.027835 0.248441
vt 0.052680 0.248441
vt 0.155351 0.512530
vt 0.132992 0.512530
vt 0.132992 0.248441
vt 0.155351 0.248441
vn 0.000000 0.000000 1.000000
vn 0.000000 0.000000 1.000000
vn 0.000000 0.000000 1.000000
vn 0.000000 0.000000 1.000000
vn 0.000000 1.000000 0.000000
vn 0.000000 1.000000 0.000000
vn 0.000000 1.000000 0.000000
vn 0.000000 1.000000 0.000000
vn 0.000000 0.000000 -1.000000
vn 0.000000 0.000000 -1.000000
vn 0.000000 0.000000 -1.000000
vn 0.000000 0.000000 -1.000000
vn 1.000000 0.000000 0.000000
vn 1.000000 0.000000 0.000000
vn 1.000000 0.000000 0.000000
vn 1.000000 0.000000 0.000000
vn -1.000000 0.000000 0.000000
vn -1.000000 0.000000 0.000000
vn -1.000000 0.000000 0.000000
vn -1.000000 0.000000 0.000000
vn 0.000000 1.000000 0.000000
vn 0.000000 1.000000 0.000000
vn 0.000000 1.000000 0.000000
vn 0.000000 1.000000 0.000000
vn 1.000000 0.000000 0.000000
vn 1.000000 0.000000 0.000000
vn -1.000000 0.000000 0.000000
vn -1.000000 0.000000 0.000000
vn 0.000000 0.000000 -1.000000
vn 0.000000 0.000000 -1.000000
vn 0.000000 1.000000 0.000000
vn 0.000000 1.000000 0.000000
vn 0.000000 1.000000 0.000000
vn 0.000000 1.000000 0.000000
vn 0.000000 0.000000 1.000000
vn 0.000000 0.000000 1.000000
vn 0.000000 1.000000 0.000000
vn 0.000000 1.000000 0.000000
vn 0.000000 1.000000 0.000000
vn 0.000000 1.000000 0.000000
vn 0.000000 1.000000 0.000000
vn 0.000000 1.000000 0.000000
vn 1.000000 0.000000 0.000000
vn 1.000000 0.000000 0.000000
vn -1.000000 0.000000 0.000000
vn -1.000000 0.000000 0.000000
vn 0.000000 0.000000 -1.000000
vn 0.000000 0.000000 -1.000000
vn 0.000000 1.000000 0.000000
vn 0.000000 1.000000 0.000000
vn 0.000000 1.000000 0.000000
vn 0.000000 1.000000 0.000000
vn 0.000000 1.000000 0.000000
vn 0.000000 1.000000 0.000000
vn 0.000000 1.000000 0.000000
vn 0.000000 1.000000 0.000000
vn 0.000000 0.000000 1.000000
vn 0.000000 0.000000 1.000000
vn 0.000000 0.000000 1.000000
vn 0.000000 0.000000 1.000000
vn 0.000000 0.000000 1.000000
vn 0.000000 0.000000 1.000000
vn 1.000000 0.000000 0.000000
vn 1.000000 0.000000 0.000000
vn 0.000000 0.000000 -1.000000
vn 0.000000 0.000000 -1.000000
vn 0.000000 0.000000 1.000000
vn 0.000000 0.000000 1.000000
vn 0.000000 0.000000 -1.000000
vn -0.000000 0.000000 1.000000
vn -0.000000 0.000000 1.000000
vn 0.000000 0.000000 -1.000000
vn -1.000000 0.000000 0.000000
vn -1.000000 0.000000 0.000000
vn 0.000000 0.000000 -1.000000
vn 0.000000 0.000000 -1.000000
vn 0.000000 0.000000 -1.000000
vn 0.000000 0.000000 -1.000000
vn -1.000000 0.000000 0.000000
vn -1.000000 0.000000 0.000000
vn -1.000000 0.000000 0.000000
vn -1.000000 0.000000 0.000000
vn 0.000000 0.000000 1.000000
vn 0.000000 0.000000 1.000000
vn 1.000000 0.000000 0.000000
vn 1.000000 0.000000 0.000000
vn 0.000000 0.000000 1.000000
vn 0.000000 0.000000 1.000000
vn 1.000000 0.000000 0.000000
vn 1.000000 0.000000 0.000000
vn 1.000000 0.000000 0.000000
vn 1.000000 0.000000 0.000000
vn 0.000000 0.000000 -1.000000
vn 0.000000 0.000000 -1.000000
vn 0.000000 0.000000 -1.000000
vn 0.000000 0.000000 -1.000000
vn -1.000000 0.000000 0.000000
vn -1.000000 0.000000 0.000000
s 1
g pCube1
usemtl initialShadingGroup
f 17/59/1 13/60/2 2/61/3 4/62/4
s 2
f 29/33/5 30/34/6 31/35/7 32/36/8
s 3
f 14/71/9 15/72/10 6/73/11 8/74/12
s 4
f 10/1/13 11/2/14 8/3/15 6/4/16
s 5
f 7/13/17 12/14/18 9/15/19 5/16/20
s 6
f 16/41/21 19/42/22 20/43/23 10/44/24
s 4
f 20/5/25 21/6/26 11/2/14 10/1/13
s 5
f 9/15/19 12/14/18 22/17/27 18/18/28
s 3
f 24/75/29 25/76/30 15/72/10 14/71/9
s 2
f 33/37/31 34/38/32 30/34/6 29/33/5
s 6
f 26/45/33 27/46/34 19/42/22 16/41/21
s 1
f 28/63/35 23/64/36 13/60/2 17/59/1
s 6
f 27/46/34 28/49/37 17/50/38 19/42/22
s off
f 38/51/39 37/52/40 39/53/41 40/54/42
s 4
f 2/9/43 21/6/26 20/5/25 4/10/44
s 5
f 18/18/28 22/17/27 1/21/45 3/22/46
s 3
f 5/79/47 25/76/30 24/75/29 7/80/48
s 2
f 35/39/49 34/38/32 33/37/31 36/40/50
s 6
f 18/47/51 27/46/34 26/45/33 9/48/52
s off
f 41/55/53 42/56/54 43/57/55 44/58/56
s 1
f 1/67/57 23/64/36 28/63/35 3/68/58
s 7
f 16/83/59 10/84/60 31/85/61 30/86/62
s 4
f 10/1/13 6/4/16 32/7/63 31/8/64
s 3
f 6/73/11 15/72/10 29/77/65 32/78/66
s 7
f 26/87/67 16/83/59 30/86/62 34/88/68
s 3
f 15/72/10 25/76/30 33/81/69 29/77/65
s 7
f 9/89/70 26/87/67 34/88/68 35/90/71
s 3
f 25/76/30 5/79/47 36/82/72 33/81/69
s 5
f 5/16/20 9/15/19 35/19/73 36/20/74
s off
f 20/91/75 19/92/76 37/93/77 38/94/78
f 19/25/79 17/26/80 39/27/81 37/28/82
s 1
f 17/59/1 4/62/4 40/65/83 39/66/84
s 4
f 4/10/44 20/5/25 38/11/85 40/12/86
s 1
f 3/68/58 28/63/35 42/69/87 41/70/88
s off
f 28/29/89 27/30/90 43/31/91 42/32/92
f 27/95/93 18/96/94 44/97/95 43/98/96
s 5
f 18/18/28 3/22/46 41/23/97 44/24/98
